<?xml version="1.0" encoding="UTF-8"?><svg id="Layer_1" xmlns="http://www.w3.org/2000/svg" viewBox="0 0 238.26 261.93"><defs><style>.cls-1{fill:#231f20;stroke-width:0px;}</style></defs><path class="cls-1" d="M2.82,226.14c.56-29.3.85-40.58.85-62.19,0-23.67-.33-48.32-.99-73.96C2.02,64.35,1.13,42.45,0,12.96L20.57,0c41.7,1.32,105.83,1.97,135.7,1.97,31.37,0,57.67-.56,78.9-1.69l3.1,4.23c-.94,31.18-1.65,62.05-2.11,103.94-.47,41.89-.7,64.44-.7,96,0,24.04.09,37.66.28,40.86l-15.78,16.62c-43.02-1.69-78.52-2.54-106.51-2.54-24.23,0-78.41.75-105.83,2.25l-5.07-12.96.28-22.54ZM14.93,230.37l.28,2.82c15.03-.38,26.39-.56,34.09-.56,22.54,0,84.89.94,130.35,2.82l34.38,1.41.56,3.1,1.13.28v-13.52c0-40.76-1.6-80.31-4.79-147l-2.25-47.87,16.06-1.97v-3.1l-191.21-3.38-.85-3.66-1.13-.28c-1.32,50.34-1.97,87.6-1.97,123.1,0,33.44.56,52.61,1.69,85.85l-16.34,1.97Z"/><path class="cls-1" d="M198.69,212.25H39.58v-2.64c7.53-.16,12.94-.52,16.22-1.08,3.28-.56,5.77-1.72,7.45-3.49,1.68-1.76,2.84-4.72,3.48-8.89.96-8.81,2.4-23.23,4.33-43.26,1.92-20.03,4.09-41.9,6.49-65.61l3.12-33.17,10.33-10.09h65.61l13.46,149.97c.48,4.65,1.48,7.93,3,9.85,1.52,1.92,3.92,3.21,7.21,3.85,3.28.64,9.33,1.28,18.15,1.92l.24,2.64ZM125.5,207.56c4.4-1.36,6.61-4.29,6.61-8.77l-1.44-23.07,9.61-1.2v-1.92l-64.89-.48-2.16,19.95c-.16,1.12-.24,2.56-.24,4.33,0,4.01.96,6.93,2.88,8.77,1.92,1.84,5.01,3.05,9.25,3.6,4.24.56,10.94.84,20.07.84s15.9-.68,20.31-2.04ZM133.31,89.67l-48.07-.48-8.65,72.34h53.12l-6.01-68.74,9.61-1.2v-1.92Z"/></svg>